{"accessors":[{"name":"mmGroup0_1_0_positions","componentType":5126,"count":45051,"min":[-10.712977409362793,-11.3425931930542,5.9926323890686035],"max":[9.801870346069336,8.416888236999512,31.273536682128906],"type":"VEC3","bufferView":0,"byteOffset":0},{"name":"mmGroup0_1_0_normals","componentType":5126,"count":45051,"min":[-0.9999308586120605,-0.9999879598617554,-1],"max":[0.9999945759773254,0.9999711513519287,0.9999846816062927],"type":"VEC3","bufferView":1,"byteOffset":0},{"name":"mmGroup0_1_0_indices","componentType":5123,"count":270294,"min":[0],"max":[45050],"type":"SCALAR","bufferView":2,"byteOffset":0}],"asset":{"generator":"obj2gltf","version":"2.0"},"buffers":[{"name":"Head_Sculpt_1","byteLength":1621812,"uri":"data:application/octet-stream;base64,"}],"bufferViews":[{"name":"bufferView_0","buffer":0,"byteLength":540612,"byteOffset":0,"byteStride":12,"target":34962},{"name":"bufferView_1","buffer":0,"byteLength":540612,"byteOffset":540612,"byteStride":12,"target":34962},{"name":"bufferView_2","buffer":0,"byteLength":540588,"byteOffset":1081224,"target":34963}],"materials":[{"name":"default","pbrMetallicRoughness":{"baseColorFactor":[0.5,0.5,0.5,1],"metallicFactor":0,"roughnessFactor":1},"emissiveFactor":[0,0,0],"alphaMode":"OPAQUE","doubleSided":false}],"meshes":[{"name":"mmGroup0_1","primitives":[{"attributes":{"POSITION":0,"NORMAL":1},"indices":2,"material":0,"mode":4}]}],"nodes":[{"name":"mmGroup0","mesh":0}],"scene":0,"scenes":[{"nodes":[0]}]}